<?xml version="1.0" encoding="UTF-8"?>
<svg version="1.1" xmlns="http://www.w3.org/2000/svg" width="274" height="98">
<path d="M0 0 C90.42 0 180.84 0 274 0 C274 32.34 274 64.68 274 98 C183.58 98 93.16 98 0 98 C0 65.66 0 33.32 0 0 Z " fill="#11151A" transform="translate(0,0)"/>
<path d="M0 0 C3.375 0.9375 3.375 0.9375 4.8125 3 C4.998125 3.639375 5.18375 4.27875 5.375 4.9375 C6.035 4.9375 6.695 4.9375 7.375 4.9375 C7.705 3.9475 8.035 2.9575 8.375 1.9375 C11.88753146 -0.40418764 13.23969356 -0.55873677 17.375 -0.0625 C20.07490662 1.73743774 21.9168865 3.021273 23.375 5.9375 C23.47219073 7.95778352 23.50576517 9.98128731 23.5078125 12.00390625 C23.50910156 13.21111328 23.51039062 14.41832031 23.51171875 15.66210938 C23.50785156 16.92861328 23.50398438 18.19511719 23.5 19.5 C23.50580078 21.40555664 23.50580078 21.40555664 23.51171875 23.34960938 C23.51042969 24.55552734 23.50914063 25.76144531 23.5078125 27.00390625 C23.50668457 28.11709229 23.50555664 29.23027832 23.50439453 30.37719727 C23.375 32.9375 23.375 32.9375 22.375 33.9375 C19.735 33.9375 17.095 33.9375 14.375 33.9375 C13.88 21.5625 13.88 21.5625 13.375 8.9375 C11.725 9.2675 10.075 9.5975 8.375 9.9375 C8.34994385 10.62900146 8.3248877 11.32050293 8.29907227 12.03295898 C8.18347839 15.14717866 8.06058758 18.26106789 7.9375 21.375 C7.89818359 22.46361328 7.85886719 23.55222656 7.81835938 24.67382812 C7.77646484 25.70830078 7.73457031 26.74277344 7.69140625 27.80859375 C7.65474854 28.76693115 7.61809082 29.72526855 7.58032227 30.71264648 C7.375 32.9375 7.375 32.9375 6.375 33.9375 C4.065 33.9375 1.755 33.9375 -0.625 33.9375 C-0.955 26.0175 -1.285 18.0975 -1.625 9.9375 C-3.275 9.6075 -4.925 9.2775 -6.625 8.9375 C-8.30800669 10.62050669 -7.85309077 12.75758727 -7.94140625 15.06640625 C-7.98330078 16.10087891 -8.02519531 17.13535156 -8.06835938 18.20117188 C-8.10767578 19.28978516 -8.14699219 20.37839844 -8.1875 21.5 C-8.23068359 22.59248047 -8.27386719 23.68496094 -8.31835938 24.81054688 C-8.42482068 27.51939564 -8.52683516 30.22833992 -8.625 32.9375 C-11.265 32.9375 -13.905 32.9375 -16.625 32.9375 C-16.625 22.3775 -16.625 11.8175 -16.625 0.9375 C-13.985 0.9375 -11.345 0.9375 -8.625 0.9375 C-8.295 1.5975 -7.965 2.2575 -7.625 2.9375 C-7.109375 2.421875 -6.59375 1.90625 -6.0625 1.375 C-3.625 -0.0625 -3.625 -0.0625 0 0 Z " fill="#F5F5F5" transform="translate(77.625,32.0625)"/>
<path d="M0 0 C5.08643801 2.73885123 8.17004027 5.5101208 10 11 C10.66780498 18.38964526 10.63285583 24.91937673 6 31 C2.45859804 34.23785322 -1.13534479 34.58810245 -5.78515625 34.41015625 C-9.60798877 33.7022243 -11.46095262 31.84131493 -14 29 C-17.43866336 23.03965017 -18.007519 17.42058724 -16.49609375 10.7890625 C-14.99657436 6.17911147 -13.18048736 3.67979959 -9 1 C-5.89046621 -0.5547669 -3.43733239 -0.28644437 0 0 Z " fill="#F6F6F6" transform="translate(181,32)"/>
<path d="M0 0 C2.63953567 2.30959371 3.80785295 4.39614519 4.30297852 7.88476562 C4.32803467 8.63435547 4.35309082 9.38394531 4.37890625 10.15625 C4.43014648 11.39568359 4.43014648 11.39568359 4.48242188 12.66015625 C4.50884766 13.51480469 4.53527344 14.36945312 4.5625 15.25 C4.62268724 16.94804865 4.68636617 18.64597792 4.75390625 20.34375 C4.77783447 21.09333984 4.8017627 21.84292969 4.82641602 22.61523438 C4.92809728 24.77796211 4.92809728 24.77796211 5.63647461 26.88476562 C5.75643799 27.50029297 5.87640137 28.11582031 6 28.75 C4.0625 31 4.0625 31 2 32.75 C1.401875 32.42 0.80375 32.09 0.1875 31.75 C-2.05386471 30.54212012 -2.05386471 30.54212012 -5 30.75 C-5.99 31.41 -6.98 32.07 -8 32.75 C-12.73089406 33.59163846 -16.04468984 33.39337215 -20.0625 30.6875 C-22.49484049 26.99975797 -22.62070813 25.09495691 -22 20.75 C-20.30811808 17.02785979 -18.43482633 14.92095537 -15 12.75 C-12.421875 12.23828125 -12.421875 12.23828125 -9.75 12.0625 C-8.85796875 11.99675781 -7.9659375 11.93101563 -7.046875 11.86328125 C-6.37140625 11.82589844 -5.6959375 11.78851563 -5 11.75 C-5.33 10.1 -5.66 8.45 -6 6.75 C-7.65 6.42 -9.3 6.09 -11 5.75 C-11.37125 6.41 -11.7425 7.07 -12.125 7.75 C-14 9.75 -14 9.75 -17.1875 10 C-18.115625 9.9175 -19.04375 9.835 -20 9.75 C-20.75 8.0625 -20.75 8.0625 -21 5.75 C-16.1101569 -1.8564226 -8.24145672 -3.4339403 0 0 Z " fill="#F3F4F4" transform="translate(128,33.25)"/>
<path d="M0 0 C3.11068509 1.32157363 5.45144508 2.90289016 7 6 C7.13901081 7.38813762 7.22522358 8.78182605 7.28125 10.17578125 C7.31863281 11.00400391 7.35601562 11.83222656 7.39453125 12.68554688 C7.44673828 13.98588867 7.44673828 13.98588867 7.5 15.3125 C7.70140808 21.68085254 7.70140808 21.68085254 8.65234375 27.9609375 C8.82443359 28.97027344 8.82443359 28.97027344 9 30 C7.0625 32.3125 7.0625 32.3125 5 34 C4.401875 33.67 3.80375 33.34 3.1875 33 C0.94613529 31.79212012 0.94613529 31.79212012 -2 32 C-2.556875 32.33 -3.11375 32.66 -3.6875 33 C-7.12078371 34.48466322 -10.36683943 34.68346585 -14 34 C-17 32 -17 32 -19 29 C-19.80406833 23.93436952 -19.61810926 22.07670646 -17.0625 17.625 C-13.75464807 14.13706444 -9.62950884 13.50283055 -5 13 C-4.01 13 -3.02 13 -2 13 C-2.33 11.35 -2.66 9.7 -3 8 C-4.65 7.67 -6.3 7.34 -8 7 C-8.37125 7.66 -8.7425 8.32 -9.125 9 C-11 11 -11 11 -14.1875 11.25 C-15.115625 11.1675 -16.04375 11.085 -17 11 C-17.75 9.3125 -17.75 9.3125 -18 7 C-13.45904332 -0.06371039 -7.975955 -1.05508696 0 0 Z " fill="#F3F3F4" transform="translate(47,32)"/>
<path d="M0 0 C4.2715451 1.34486427 8.25033758 2.99716204 12.3125 4.875 C34.69482579 14.54245558 60.74237558 15.30801501 84 8 C85.34578125 7.43925781 85.34578125 7.43925781 86.71875 6.8671875 C89 6 89 6 93 6 C91.95724695 9.29480999 90.92619049 10.04290178 87.875 11.81640625 C86.59032225 12.41370536 85.2981313 12.99503344 84 13.5625 C83.32445068 13.86623535 82.64890137 14.1699707 81.95288086 14.48291016 C64.89523338 22.00135413 44.90501476 23.90905013 27 18 C17.39184147 14.12879764 7.72337164 8.97067016 0 2 C0 1.34 0 0.68 0 0 Z " fill="#E49636" transform="translate(55,69)"/>
<path d="M0 0 C4.14808875 1.28213652 5.12783375 2.44624571 7.4375 6.0625 C7.89160156 9.10864258 7.89160156 9.10864258 7.828125 12.45703125 C7.80878906 14.26010742 7.80878906 14.26010742 7.7890625 16.09960938 C7.75554687 17.34548828 7.72203125 18.59136719 7.6875 19.875 C7.66945312 21.14021484 7.65140625 22.40542969 7.6328125 23.70898438 C7.58573916 26.82759335 7.51999094 29.94465973 7.4375 33.0625 C4.7975 33.0625 2.1575 33.0625 -0.5625 33.0625 C-0.8925 25.4725 -1.2225 17.8825 -1.5625 10.0625 C-3.2125 9.7325 -4.8625 9.4025 -6.5625 9.0625 C-8.24105968 10.74105968 -7.77045564 12.85293568 -7.84375 15.15625 C-7.88113281 16.18621094 -7.91851562 17.21617188 -7.95703125 18.27734375 C-7.99183594 19.36144531 -8.02664062 20.44554688 -8.0625 21.5625 C-8.13106141 23.69806094 -8.20375012 25.83349476 -8.28125 27.96875 C-8.32668945 29.39670898 -8.32668945 29.39670898 -8.37304688 30.85351562 C-8.5625 33.0625 -8.5625 33.0625 -9.5625 34.0625 C-11.8725 34.0625 -14.1825 34.0625 -16.5625 34.0625 C-16.5625 23.1725 -16.5625 12.2825 -16.5625 1.0625 C-14.2525 1.0625 -11.9425 1.0625 -9.5625 1.0625 C-9.2325 2.0525 -8.9025 3.0425 -8.5625 4.0625 C-7.881875 3.381875 -7.20125 2.70125 -6.5 2 C-3.5625 0.0625 -3.5625 0.0625 0 0 Z " fill="#F9F9F9" transform="translate(212.5625,31.9375)"/>
<path d="M0 0 C7.26 0 14.52 0 22 0 C22 6.7486819 22 6.7486819 19.84765625 9.578125 C19.40099609 10.18140625 18.95433594 10.7846875 18.49414062 11.40625 C18.02169922 12.0146875 17.54925781 12.623125 17.0625 13.25 C16.13590324 14.48376295 15.21008555 15.71811149 14.28515625 16.953125 C13.53105469 17.95859375 12.77695313 18.9640625 12 20 C11.67 20.66 11.34 21.32 11 22 C11.886875 21.95875 12.77375 21.9175 13.6875 21.875 C16.97277013 21.99897246 19.05449295 22.61387904 22 24 C22 26.64 22 29.28 22 32 C21.030625 31.67 20.06125 31.34 19.0625 31 C12.10270086 29.03157196 5.76676096 29.6964218 -1 32 C-2.07351344 25.77362205 -1.02670808 22.50556389 2.52783203 17.45751953 C4.64739153 14.60819136 6.82131515 11.80435844 9 9 C9.33 8.34 9.66 7.68 10 7 C9.04287109 7.01740234 9.04287109 7.01740234 8.06640625 7.03515625 C7.24011719 7.04417969 6.41382813 7.05320312 5.5625 7.0625 C4.32693359 7.07990234 4.32693359 7.07990234 3.06640625 7.09765625 C1 7 1 7 0 6 C0 4.02 0 2.04 0 0 Z " fill="#F6F6F6" transform="translate(139,33)"/>
<path d="M0 0 C2.5 -0.3125 2.5 -0.3125 5 0 C7.54200295 2.54200295 7.28716913 4.24224383 7.32226562 7.71679688 C7.31904297 8.44962891 7.31582031 9.18246094 7.3125 9.9375 C7.32861328 10.66646484 7.34472656 11.39542969 7.36132812 12.14648438 C7.36620782 17.47023307 7.36620782 17.47023307 5.609375 20.01171875 C4 21 4 21 1.9375 20.875 C0 20 0 20 -2 17 C-2.265625 13.75 -2.265625 13.75 -2.25 10 C-2.25515625 8.7625 -2.2603125 7.525 -2.265625 6.25 C-2 3 -2 3 0 0 Z " fill="#161A1F" transform="translate(175,39)"/>
<path d="M0 0 C1.45792884 -0.05399736 2.91642712 -0.09279177 4.375 -0.125 C5.18710938 -0.14820313 5.99921875 -0.17140625 6.8359375 -0.1953125 C9 0 9 0 11 2 C11.1953125 4.8203125 11.1953125 4.8203125 11.125 8.125 C11.10695313 9.22070312 11.08890625 10.31640625 11.0703125 11.4453125 C11.04710937 12.28835937 11.02390625 13.13140625 11 14 C9.37536158 14.05395478 7.75021459 14.09277195 6.125 14.125 C5.22007812 14.14820312 4.31515625 14.17140625 3.3828125 14.1953125 C1 14 1 14 -1 12 C-0.44444444 7.44444444 -0.44444444 7.44444444 1 6 C3.33297433 5.95907063 5.66705225 5.95758277 8 6 C7.67 5.01 7.34 4.02 7 3 C4.69 3 2.38 3 0 3 C0 2.01 0 1.02 0 0 Z " fill="#DEDCDA" transform="translate(245,50)"/>
<path d="M0 0 C0.86625 -0.00257812 1.7325 -0.00515625 2.625 -0.0078125 C5 0.125 5 0.125 8 1.125 C7.70985503 7.52269648 6.67435134 11.82961131 3 17.125 C2.01 17.785 1.02 18.445 0 19.125 C0.875 13.375 0.875 13.375 2 11.125 C2 9.145 2 7.165 2 5.125 C-2.29 4.795 -6.58 4.465 -11 4.125 C-7.25055628 0.37555628 -5.08408565 -0.01513121 0 0 Z " fill="#E29536" transform="translate(149,66.875)"/>
<path d="M0 0 C0 0.99 0 1.98 0 3 C-1.98 3.33 -3.96 3.66 -6 4 C-6 6.31 -6 8.62 -6 11 C-4.02 11 -2.04 11 0 11 C0 11.99 0 12.98 0 14 C-6.30818278 14.35706695 -6.30818278 14.35706695 -8.9375 13 C-10.65886567 9.75978228 -10.52960415 6.58042244 -10 3 C-7.8202924 -1.102979 -4.20798751 -0.23818797 0 0 Z " fill="#D7D6D3" transform="translate(242,50)"/>
<path d="M0 0 C0.36174071 6.39075249 0.36174071 6.39075249 -1.1875 9 C-3 10 -3 10 -5.6875 9.6875 C-6.450625 9.460625 -7.21375 9.23375 -8 9 C-8.1875 5.625 -8.1875 5.625 -8 2 C-4.77208445 -0.1519437 -3.71599191 -0.20086443 0 0 Z " fill="#181C21" transform="translate(123,50)"/>
<path d="M0 0 C0.36174071 6.39075249 0.36174071 6.39075249 -1.1875 9 C-3 10 -3 10 -5.6875 9.6875 C-6.450625 9.460625 -7.21375 9.23375 -8 9 C-8.36190476 3.57142857 -8.36190476 3.57142857 -6.8125 1.125 C-4.43963721 -0.34781139 -2.74086056 -0.22223194 0 0 Z " fill="#171B20" transform="translate(45,50)"/>
<path d="M0 0 C1.65 0 3.3 0 5 0 C5 0.99 5 1.98 5 3 C3.35 3.33 1.7 3.66 0 4 C0 2.68 0 1.36 0 0 Z " fill="#323538" transform="translate(248,58)"/>
</svg>
